<svg width="340" height="350" viewBox="0 0 340 350" fill="none" xmlns="http://www.w3.org/2000/svg">
<path d="M60.0337 64.5803C55.6744 60.6326 55.1214 53.9393 59.1004 49.6087C72.6003 34.9157 88.5999 23.0119 106.286 14.5445C127.058 4.60012 149.644 -0.359315 172.432 0.0202521C195.22 0.399819 217.648 6.10902 238.114 16.7403C255.55 25.7972 271.196 38.236 284.258 53.3817C288.094 57.8296 287.333 64.4942 282.856 68.2968C278.003 72.4195 270.711 71.5793 266.457 66.8401C255.598 54.7403 242.778 44.7559 228.578 37.3798C210.977 28.2369 191.689 23.327 172.091 23.0005C152.494 22.6741 133.07 26.9392 115.206 35.4914C100.81 42.3838 87.7126 51.9237 76.508 63.6392C72.0968 68.2517 64.7644 68.8645 60.0337 64.5803Z" fill="black"/>
<path d="M20.4486 133.426C29.3418 96.5459 49.0227 64.0005 76.3918 40.9159C103.761 17.8314 137.263 5.51954 171.621 5.91938C205.98 6.31921 239.242 19.408 266.17 43.1244C293.098 66.8408 312.162 99.8371 320.358 136.916L311.336 139.379C303.632 104.524 285.712 73.5076 260.4 51.2143C235.088 28.9209 203.821 16.6174 171.524 16.2415C139.227 15.8657 107.735 27.4389 82.0082 49.1383C56.2813 70.8377 37.7813 101.43 29.4217 136.098L20.4486 133.426Z" fill="black"/>
<path d="M34.6813 144.383C34.6813 136.175 70.2915 136.175 70.2915 144.383C70.2915 177.38 70.2916 234.82 70.2915 260.94C70.2915 269.149 34.6813 269.149 34.6813 260.94C34.6813 233.853 34.6813 178.037 34.6813 144.383Z" fill="black"/>
<path d="M0 178.45C0 164.939 10.9523 153.987 24.4627 153.987C37.973 153.987 48.9253 164.939 48.9253 178.45V226.382C48.9253 239.892 37.973 250.844 24.4627 250.844C10.9523 250.844 0 239.892 0 226.382V178.45Z" fill="black"/>
<path d="M15.173 141.989C15.173 136.466 19.6502 131.989 25.173 131.989H30.3461V163.837H15.173V141.989Z" fill="black"/>
<path d="M305.319 144.383C305.319 136.175 269.709 136.175 269.709 144.383C269.709 177.38 269.709 234.82 269.709 260.94C269.709 269.149 305.319 269.149 305.319 260.94C305.319 233.853 305.319 178.037 305.319 144.383Z" fill="black"/>
<path d="M340 178.45C340 164.939 329.048 153.987 315.537 153.987C302.027 153.987 291.075 164.939 291.075 178.45V226.382C291.075 239.892 302.027 250.844 315.537 250.844C329.048 250.844 340 239.892 340 226.382V178.45Z" fill="black"/>
<path d="M324.827 141.989C324.827 136.466 320.35 131.989 314.827 131.989H309.654V163.837H324.827V141.989Z" fill="black"/>
</svg>
